<svg xmlns="http://www.w3.org/2000/svg" version="1.1" xmlns:xlink="http://www.w3.org/1999/xlink" xmlns:svgjs="http://svgjs.dev/svgjs" width="1500" height="1500" viewBox="0 0 1500 1500"><rect width="1500" height="1500" fill="#463746"></rect><g transform="matrix(0.6666666666666666,0,0,0.6666666666666666,249.39393939393938,435.99032258064517)"><svg viewBox="0 0 396 248" data-background-color="#463746" preserveAspectRatio="xMidYMid meet" height="939" width="1500" xmlns="http://www.w3.org/2000/svg" xmlns:xlink="http://www.w3.org/1999/xlink"><g id="tight-bounds" transform="matrix(1,0,0,1,0.2400000000000091,0.4000000000000057)"><svg viewBox="0 0 395.52 247.2" height="247.2" width="395.52"><g><svg></svg></g><g><svg viewBox="0 0 395.52 247.2" height="247.2" width="395.52"><g transform="matrix(1,0,0,1,75.54432,77.57494049068873)"><svg viewBox="0 0 244.43135999999998 92.05011901862251" height="92.05011901862251" width="244.43135999999998"><g><svg viewBox="0 0 244.43135999999998 92.05011901862251" height="92.05011901862251" width="244.43135999999998"><g><svg viewBox="0 0 244.43135999999998 92.05011901862251" height="92.05011901862251" width="244.43135999999998"><g><svg viewBox="0 0 244.43135999999998 92.05011901862251" height="92.05011901862251" width="244.43135999999998"><g id="textblocktransform"><svg viewBox="0 0 244.43135999999998 92.05011901862251" height="92.05011901862251" width="244.43135999999998" id="textblock"><g><svg viewBox="0 0 244.43135999999998 92.05011901862251" height="92.05011901862251" width="244.43135999999998"><g transform="matrix(1,0,0,1,0,0)"><svg width="244.43135999999998" viewBox="4.88 -31.85 84.57000000000001 31.85" height="92.05011901862251" data-palette-color="#ffffff"><path d="M4.88 0L4.88-31.85 11.7-31.85 21.8-10.93 21.35-10.93 31.45-31.85 38.05-31.85 38.05 0 33.25 0 33.25-26.63 34.02-26.63 23.13-3.78 20-3.78 9.15-26.5 9.63-26.5 9.63 0 4.88 0ZM58.8-12.7L45-12.7 45-16.85 58.8-16.85 58.8-12.7ZM67.09 0L62.1 0 73-31.85 78.87-31.85 89.45 0 84.45 0 81.97-7.6 69.67-7.6 67.09 0ZM75.84-26.13L70.87-11.25 80.8-11.25 75.84-26.13Z" opacity="1" transform="matrix(1,0,0,1,0,0)" fill="#ffffff" class="wordmark-text-0" data-fill-palette-color="primary" id="text-0"></path></svg></g></svg></g></svg></g></svg></g></svg></g></svg></g></svg></g><g><path d="M245.816 0c68.262 0 123.6 55.338 123.6 123.6 0 68.262-55.338 123.6-123.6 123.6-47.748 0-89.172-27.075-109.758-66.71h4.7c20.22 37.261 59.684 62.559 105.058 62.559 65.97 0 119.449-53.479 119.449-119.449 0-65.97-53.479-119.449-119.449-119.449-45.373 0-84.838 25.298-105.058 62.559l-4.7 0c20.586-39.635 62.01-66.71 109.758-66.71z" fill="#eaa79c" stroke="transparent" data-fill-palette-color="tertiary"></path></g></svg></g><defs></defs></svg><rect width="395.52" height="247.2" fill="none" stroke="none" visibility="hidden"></rect></g></svg></g></svg>